<svg width="66" height="66" viewBox="0 0 66 66" fill="none" xmlns="http://www.w3.org/2000/svg">
<circle cx="33" cy="33" r="33" fill="#FF9467" fill-opacity="0.1"/>
<circle cx="33" cy="33" r="25" fill="#FF9467" fill-opacity="0.1"/>
<path d="M45.9002 39.5723L36.3354 22.9615C36.0963 22.5546 35.7551 22.2171 35.3455 21.9827C34.9359 21.7482 34.4722 21.6249 34.0002 21.6249C33.5282 21.6249 33.0645 21.7482 32.6549 21.9827C32.2453 22.2171 31.9041 22.5546 31.665 22.9615L22.1002 39.5723C21.8702 39.9659 21.749 40.4136 21.749 40.8695C21.749 41.3254 21.8702 41.773 22.1002 42.1667C22.3362 42.5761 22.6768 42.9154 23.0872 43.1497C23.4975 43.384 23.9628 43.5049 24.4354 43.5H43.565C44.0372 43.5045 44.5021 43.3834 44.912 43.1491C45.3219 42.9148 45.6622 42.5758 45.898 42.1667C46.1283 41.7732 46.2499 41.3257 46.2503 40.8698C46.2507 40.4139 46.1298 39.9661 45.9002 39.5723ZM33.1252 30.3749C33.1252 30.1429 33.2174 29.9203 33.3815 29.7562C33.5456 29.5921 33.7681 29.4999 34.0002 29.4999C34.2323 29.4999 34.4548 29.5921 34.6189 29.7562C34.783 29.9203 34.8752 30.1429 34.8752 30.3749V34.7499C34.8752 34.982 34.783 35.2046 34.6189 35.3687C34.4548 35.5328 34.2323 35.6249 34.0002 35.6249C33.7681 35.6249 33.5456 35.5328 33.3815 35.3687C33.2174 35.2046 33.1252 34.982 33.1252 34.7499V30.3749ZM34.0002 40C33.7406 40 33.4869 39.923 33.271 39.7788C33.0552 39.6345 32.8869 39.4295 32.7876 39.1897C32.6883 38.9499 32.6623 38.686 32.7129 38.4314C32.7636 38.1768 32.8886 37.9429 33.0721 37.7594C33.2557 37.5758 33.4895 37.4508 33.7441 37.4002C33.9987 37.3495 34.2626 37.3755 34.5025 37.4749C34.7423 37.5742 34.9473 37.7424 35.0915 37.9583C35.2357 38.1741 35.3127 38.4279 35.3127 38.6875C35.3127 39.0355 35.1744 39.3694 34.9283 39.6155C34.6821 39.8617 34.3483 40 34.0002 40Z" fill="#FF9467"/>
</svg>
