<svg width="30" height="30" viewBox="0 0 30 30" fill="none" xmlns="http://www.w3.org/2000/svg">
<path d="M4.51894 11.4815C4.57149 10.8213 4.86873 10.2053 5.35146 9.75607C5.8342 9.30689 6.467 9.05754 7.12386 9.05768H22.8762C23.533 9.05754 24.1658 9.30689 24.6486 9.75607C25.1313 10.2053 25.4285 10.8213 25.4811 11.4815L26.5301 24.6546C26.559 25.0171 26.5131 25.3817 26.3953 25.7255C26.2776 26.0692 26.0905 26.3847 25.846 26.652C25.6014 26.9193 25.3046 27.1326 24.9742 27.2785C24.6439 27.4245 24.2871 27.4999 23.9265 27.5H6.07353C5.71287 27.4999 5.35614 27.4245 5.02579 27.2785C4.69544 27.1326 4.39864 26.9193 4.15407 26.652C3.90949 26.3847 3.72245 26.0692 3.6047 25.7255C3.48696 25.3817 3.44107 25.0171 3.46992 24.6546L4.51894 11.4815V11.4815Z" stroke="#000929" stroke-opacity="0.8" stroke-width="1.5" stroke-linecap="round" stroke-linejoin="round"/>
<path d="M20.2254 13.0096V6.42311C20.2254 5.02562 19.6749 3.68537 18.6949 2.69719C17.7149 1.70902 16.3858 1.15387 14.9999 1.15387C13.614 1.15387 12.2849 1.70902 11.3049 2.69719C10.325 3.68537 9.77441 5.02562 9.77441 6.42311V13.0096" stroke="#000929" stroke-opacity="0.8" stroke-width="1.5" stroke-linecap="round" stroke-linejoin="round"/>
</svg>
