<svg width="20" height="20" viewBox="0 0 20 20" fill="none" xmlns="http://www.w3.org/2000/svg">
<path d="M17.5 4.98332C14.725 4.70832 11.9333 4.56665 9.15 4.56665C7.5 4.56665 5.85 4.64998 4.2 4.81665L2.5 4.98332" stroke="#FF9467" stroke-width="1.5" stroke-linecap="round" stroke-linejoin="round"/>
<path d="M7.08325 4.14169L7.26659 3.05002C7.39992 2.25835 7.49992 1.66669 8.90825 1.66669H11.0916C12.4999 1.66669 12.6083 2.29169 12.7333 3.05835L12.9166 4.14169" stroke="#FF9467" stroke-width="1.5" stroke-linecap="round" stroke-linejoin="round"/>
<path d="M15.7084 7.61664L15.1667 16.0083C15.0751 17.3166 15.0001 18.3333 12.6751 18.3333H7.32508C5.00008 18.3333 4.92508 17.3166 4.83341 16.0083L4.29175 7.61664" stroke="#FF9467" stroke-width="1.5" stroke-linecap="round" stroke-linejoin="round"/>
<path d="M8.6084 13.75H11.3834" stroke="#FF9467" stroke-width="1.5" stroke-linecap="round" stroke-linejoin="round"/>
<path d="M7.91675 10.4167H12.0834" stroke="#FF9467" stroke-width="1.5" stroke-linecap="round" stroke-linejoin="round"/>
</svg>
