<svg width="18" height="18" viewBox="0 0 18 18" fill="none" xmlns="http://www.w3.org/2000/svg">
<path d="M4.155 14.64C3.6975 14.64 3.27 14.4825 2.9625 14.19C2.5725 13.8225 2.385 13.2675 2.4525 12.6675L2.73 10.2375C2.7825 9.78001 3.06 9.17251 3.3825 8.84251L9.54 2.32501C11.0775 0.697506 12.6825 0.652506 14.31 2.19001C15.9375 3.72751 15.9825 5.33251 14.445 6.96001L8.2875 13.4775C7.9725 13.815 7.3875 14.13 6.93 14.205L4.515 14.6175C4.3875 14.625 4.275 14.64 4.155 14.64ZM11.9475 2.18251C11.37 2.18251 10.8675 2.54251 10.3575 3.08251L4.2 9.60751C4.05 9.76501 3.8775 10.14 3.8475 10.3575L3.57 12.7875C3.54 13.035 3.6 13.2375 3.735 13.365C3.87 13.4925 4.0725 13.5375 4.32 13.5L6.735 13.0875C6.9525 13.05 7.3125 12.855 7.4625 12.6975L13.62 6.18001C14.55 5.19001 14.8875 4.27501 13.53 3.00001C12.93 2.42251 12.4125 2.18251 11.9475 2.18251Z" fill="white"/>
<path d="M13.005 8.21249C12.99 8.21249 12.9675 8.21249 12.9525 8.21249C10.6125 7.97999 8.73 6.20249 8.37 3.87749C8.325 3.56999 8.535 3.28499 8.8425 3.23249C9.15 3.18749 9.435 3.39749 9.4875 3.70499C9.7725 5.51999 11.2425 6.91499 13.0725 7.09499C13.38 7.12499 13.605 7.40249 13.575 7.70999C13.5375 7.99499 13.29 8.21249 13.005 8.21249Z" fill="white"/>
<path d="M15.75 17.0625H2.25C1.9425 17.0625 1.6875 16.8075 1.6875 16.5C1.6875 16.1925 1.9425 15.9375 2.25 15.9375H15.75C16.0575 15.9375 16.3125 16.1925 16.3125 16.5C16.3125 16.8075 16.0575 17.0625 15.75 17.0625Z" fill="white"/>
</svg>
