<svg width="30" height="30" viewBox="0 0 30 30" fill="none" xmlns="http://www.w3.org/2000/svg">
<path d="M15.0002 6.22717L13.7592 4.86656C10.8462 1.67273 5.50491 2.77488 3.57678 6.79025C2.67156 8.67886 2.46732 11.4056 4.12026 14.8856C5.71261 18.2364 9.02541 22.2499 15.0002 26.6216C20.975 22.2499 24.2861 18.2364 25.8801 14.8856C27.5331 11.4038 27.3306 8.67886 26.4236 6.79025C24.4955 2.77488 19.1542 1.67088 16.2412 4.86472L15.0002 6.22717ZM15.0002 28.8462C-11.5385 10.141 6.82899 -4.45833 14.6956 3.26411C14.7994 3.36564 14.9015 3.47087 15.0002 3.5798C15.0979 3.47097 15.1995 3.36628 15.3048 3.26595C23.1697 -4.46202 41.5389 10.1392 15.0002 28.8462Z" fill="#000929" fill-opacity="0.8"/>
</svg>
