<svg width="30" height="30" viewBox="0 0 30 30" fill="none" xmlns="http://www.w3.org/2000/svg">
<path fill-rule="evenodd" clip-rule="evenodd" d="M27.0993 14.2675C27.0837 14.2734 27.0709 14.2837 27.0568 14.2926C26.6406 14.5667 26.1522 14.7303 25.6241 14.7303C24.1405 14.7303 22.9329 13.4745 22.9329 11.9314C22.9329 11.442 22.5535 11.0455 22.0849 11.0455C21.6149 11.0455 21.2355 11.442 21.2355 11.9314C21.2355 13.4745 20.0279 14.7303 18.5456 14.7303C17.062 14.7303 15.8544 13.4745 15.8544 11.9314C15.8544 11.442 15.475 11.0455 15.0064 11.0455C14.5364 11.0455 14.157 11.442 14.157 11.9314C14.157 13.4745 12.9494 14.7303 11.4672 14.7303C9.98353 14.7303 8.77595 13.4745 8.77595 11.9314C8.77595 11.442 8.39654 11.0455 7.92795 11.0455C7.45794 11.0455 7.07853 11.442 7.07853 11.9314C7.07853 13.4745 5.87095 14.7303 4.38871 14.7303C3.88048 14.7303 3.40906 14.5756 3.00275 14.325C2.96453 14.3029 2.93055 14.2793 2.8895 14.2631C2.17032 13.7723 1.69324 12.9528 1.68616 12.0773L2.96594 4.11373C3.18254 2.75478 4.30094 1.77021 5.62603 1.77021H24.3854C25.7105 1.77021 26.8289 2.75478 27.0455 4.1152L28.3139 11.9314C28.3139 12.9071 27.8298 13.7664 27.0993 14.2675ZM26.5683 25.4235C26.5683 26.9711 25.3593 28.2313 23.8714 28.2313H19.4007V21.7299C19.4007 21.242 19.0199 20.8455 18.5513 20.8455H11.4601C10.9915 20.8455 10.6106 21.242 10.6106 21.7299V28.2313H6.13989C4.65199 28.2313 3.44299 26.9711 3.44299 25.4235V16.387C3.74737 16.4562 4.06307 16.5005 4.38868 16.5005C5.83976 16.5005 7.12804 15.7635 7.92791 14.6301C8.72636 15.7635 10.0146 16.5005 11.4671 16.5005C12.9182 16.5005 14.2065 15.7635 15.0064 14.6301C15.8048 15.7635 17.0931 16.5005 18.5456 16.5005C19.9967 16.5005 21.285 15.7635 22.0848 14.6301C22.8833 15.7635 24.1716 16.5005 25.6241 16.5005C25.9497 16.5005 26.264 16.4562 26.5683 16.3855V25.4235ZM12.3081 28.2313H17.7033V22.6157H12.3081V28.2313ZM28.7216 3.82333C28.3677 1.60804 26.5442 0 24.3853 0H5.62596C3.46703 0 1.64362 1.60804 1.2897 3.82333L0 11.9313C0 13.4126 0.692274 14.7185 1.74413 15.5542V25.4235C1.74413 27.9468 3.71619 30 6.13986 30H23.8714C26.2951 30 28.2671 27.9468 28.2671 25.4235V15.5424C29.3176 14.692 30.007 13.3522 29.9999 11.7839L28.7216 3.82333Z" fill="#FF9F77"/>
</svg>
