<svg width="15" height="16" viewBox="0 0 15 16" fill="none" xmlns="http://www.w3.org/2000/svg">
<path fill-rule="evenodd" clip-rule="evenodd" d="M11.5625 10.8795L14.8958 14.2169C15.0447 14.3824 15.0374 14.6359 14.8792 14.7926L14.2958 15.3766C14.2176 15.4556 14.1111 15.5 14 15.5C13.8889 15.5 13.7824 15.4556 13.7042 15.3766L10.3708 12.0393C10.2786 11.9469 10.195 11.8463 10.1208 11.7389L9.49583 10.9046C8.46171 11.7313 7.17754 12.1815 5.85416 12.1811C3.12717 12.1906 0.757518 10.3072 0.148107 7.64592C-0.461305 4.98467 0.85217 2.25582 3.31091 1.07493C5.76966 -0.105965 8.71747 0.576261 10.4092 2.71771C12.1009 4.85915 12.0849 7.8883 10.3708 10.0118L11.2042 10.5875C11.3343 10.6709 11.4545 10.7689 11.5625 10.8795ZM1.6875 6.34072C1.6875 8.64468 3.55298 10.5124 5.85416 10.5124C6.95923 10.5124 8.01904 10.0729 8.80044 9.29055C9.58184 8.50821 10.0208 7.44712 10.0208 6.34072C10.0208 4.03676 8.15535 2.16903 5.85416 2.16903C3.55298 2.16903 1.6875 4.03676 1.6875 6.34072Z" fill="#000929" fill-opacity="0.4"/>
</svg>
